<?xml version="1.0" encoding="utf-8"?>
<!-- Generator: Adobe Illustrator 16.0.0, SVG Export Plug-In . SVG Version: 6.00 Build 0)  -->
<!DOCTYPE svg PUBLIC "-//W3C//DTD SVG 1.1//EN" "http://www.w3.org/Graphics/SVG/1.1/DTD/svg11.dtd">
<svg version="1.1" id="Layer_1" xmlns="http://www.w3.org/2000/svg" xmlns:xlink="http://www.w3.org/1999/xlink" x="0px" y="0px"
	 width="244.334px" height="104.667px" viewBox="38.105 7.663 244.334 104.667"
	 enable-background="new 38.105 7.663 244.334 104.667" xml:space="preserve">
<g>
	<path fill="#00498F" d="M213.674,104.607c1.316,0,2.396-1.058,2.396-2.386V49.029c0-1.329,1.067-2.386,2.396-2.386h9.751
		c1.303,0,3.103-0.832,3.97-1.825l9.755-11.159c0.512-0.582,0.584-1.103,0.289-1.434c-0.184-0.221-0.557-0.371-1.108-0.371h-53.917
		c-1.318,0-3.107,0.812-3.967,1.805l-9.783,11.159c-0.547,0.622-0.602,1.153-0.261,1.489v0.01c0.226,0.195,0.581,0.326,1.073,0.326
		h22.545c1.321,0,2.396,1.058,2.396,2.386v1.674v51.518c0,0.592,0.226,1.138,0.589,1.571c0.022,0,0.022,0.013,0.038,0.022
		c0.055,0.07,0.104,0.12,0.16,0.16c0.426,0.391,0.98,0.632,1.604,0.632H213.674z"/>
	<path fill="#00498F" d="M91.74,104.607h12.164c1.323,0,2.401-1.058,2.401-2.386V34.243c0-0.639-0.275-1.24-0.699-1.671l-0.01-0.015
		h-0.005c-0.434-0.431-1.033-0.702-1.687-0.702H91.74c-1.318,0-2.401,1.081-2.401,2.388v21.029c0,1.316-1.073,2.396-2.389,2.396
		H70.425H68.65c-1.318,0-2.396-1.08-2.396-2.396V34.243c0-0.578-0.226-1.103-0.571-1.521c-0.438-0.521-1.093-0.867-1.835-0.867
		H51.687c-1.316,0-2.389,1.081-2.389,2.388v67.979c0,0.631,0.253,1.192,0.652,1.634c0.439,0.456,1.055,0.752,1.737,0.752h12.161
		c1.329,0,2.406-1.058,2.406-2.386V76.364c0-1.334,1.078-2.406,2.396-2.406h18.3c1.315,0,2.389,1.072,2.389,2.406v1.782v24.075
		c0,0.636,0.263,1.22,0.682,1.639C90.454,104.316,91.056,104.607,91.74,104.607"/>
	<path fill="#00498F" d="M173.877,104.628c1.146,0,1.664-0.692,1.298-1.614c-0.046-0.128-0.115-0.267-0.206-0.401l-22.417-34.646
		l-2.284-3.529c-0.719-1.104-0.589-2.808,0.271-3.811l23.518-26.946c0.411-0.471,0.541-0.902,0.421-1.229
		c-0.13-0.346-0.556-0.576-1.245-0.576h-15.458c-1.314,0-3.083,0.814-3.928,1.834l-17.493,20.639l-2.89,3.421
		c-0.855,1.003-1.542,0.751-1.542-0.564V34.261c0-0.552-0.215-1.083-0.537-1.494c-0.446-0.551-1.108-0.892-1.859-0.892h-11.791
		c-1.323,0-2.401,1.078-2.401,2.386v67.96c0,0.691,0.281,1.293,0.747,1.738c0.436,0.407,1.007,0.668,1.654,0.668h11.791
		c1.308,0,2.396-1.078,2.396-2.406V84.145c0-1.304,0.711-3.186,1.599-4.161l2.466-2.722c0.885-0.978,2.184-0.864,2.891,0.251
		l2.318,3.646l13.635,21.448c0.168,0.25,0.376,0.506,0.649,0.747c0.83,0.739,2.008,1.273,3.028,1.273H173.877z"/>
	<path fill="#00498F" d="M260.175,14.485c1.52,0,2.96,0.286,4.319,0.852c1.357,0.565,2.571,1.377,3.626,2.461
		c1.034,1.044,1.829,2.241,2.388,3.592c0.552,1.351,0.828,2.76,0.828,4.23c0,1.523-0.276,2.946-0.828,4.283
		c-0.559,1.331-1.36,2.508-2.418,3.539c-1.101,1.071-2.328,1.889-3.691,2.455c-1.367,0.572-2.771,0.852-4.224,0.852
		c-1.477,0-2.888-0.279-4.237-0.852c-1.347-0.565-2.551-1.396-3.615-2.487c-1.057-1.064-1.865-2.262-2.414-3.599
		c-0.556-1.336-0.835-2.727-0.835-4.19c0-1.47,0.289-2.894,0.868-4.264c0.582-1.377,1.413-2.614,2.501-3.711
		c1.018-1.038,2.185-1.823,3.495-2.355C257.251,14.758,258.664,14.485,260.175,14.485 M269.886,25.727
		c0-1.351-0.236-2.607-0.702-3.785c-0.469-1.177-1.157-2.215-2.048-3.106c-0.929-0.938-1.979-1.649-3.16-2.135
		c-1.167-0.485-2.421-0.731-3.755-0.731c-1.313,0-2.547,0.232-3.708,0.712c-1.153,0.465-2.171,1.15-3.04,2.035
		c-0.947,0.951-1.679,2.028-2.185,3.226c-0.509,1.198-0.762,2.428-0.762,3.692c0,1.257,0.246,2.468,0.731,3.632
		c0.489,1.157,1.194,2.202,2.109,3.126c0.91,0.924,1.948,1.636,3.125,2.135c1.175,0.492,2.385,0.745,3.636,0.745
		c1.313,0,2.554-0.24,3.731-0.725c1.174-0.479,2.242-1.185,3.213-2.109c0.911-0.884,1.604-1.902,2.089-3.053
		C269.646,28.228,269.886,27.01,269.886,25.727 M260.474,19.095c1.757,0,3.073,0.286,3.955,0.865
		c0.878,0.578,1.327,1.443,1.327,2.587c0,0.898-0.257,1.644-0.759,2.235c-0.505,0.592-1.214,0.978-2.132,1.164l2.823,5.76h-2.667
		l-2.577-5.388h-2.342v5.388h-2.388V19.095H260.474z M260.052,20.631h-1.949v4.177h2.009c1.145,0,1.959-0.153,2.454-0.473
		c0.493-0.319,0.738-0.831,0.738-1.536c0-0.765-0.252-1.311-0.771-1.656C262.021,20.804,261.195,20.631,260.052,20.631"/>
</g>
</svg>
